<svg xmlns="http://www.w3.org/2000/svg" width="18.554" height="18.469" viewBox="0 0 18.554 18.469">
  <path id="Контур_67" data-name="Контур 67" d="M10.384,4a1.743,1.743,0,0,1,3.232,0l.008.02a1.743,1.743,0,0,0,2.436.885l.012-.007A1.743,1.743,0,0,1,18.555,6.96l-.035.112A1.743,1.743,0,0,0,19.806,9.3l.1.023a1.743,1.743,0,0,1,.565,3.168l-.12.077a1.743,1.743,0,0,0-.445,2.522L20,15.2a1.743,1.743,0,0,1-1.624,2.782l-.056-.008a1.743,1.743,0,0,0-1.979,1.658l0,.067A1.743,1.743,0,0,1,13.3,20.8h0a1.743,1.743,0,0,0-2.6,0h0A1.743,1.743,0,0,1,7.663,19.7l0-.067a1.743,1.743,0,0,0-1.979-1.658l-.056.008A1.743,1.743,0,0,1,4,15.2l.089-.117a1.743,1.743,0,0,0-.445-2.522l-.12-.077A1.743,1.743,0,0,1,4.09,9.319l.1-.023A1.743,1.743,0,0,0,5.48,7.072L5.445,6.96A1.743,1.743,0,0,1,7.928,4.9l.012.007a1.743,1.743,0,0,0,2.436-.885Z" transform="translate(-2.723 -2.911)" fill="#3fcbeb"/>
</svg>
