<svg xmlns="http://www.w3.org/2000/svg" width="18.554" height="18.469" viewBox="0 0 18.554 18.469">
  <g id="Контур_104" data-name="Контур 104" transform="translate(-2.723 -2.911)" fill="none">
    <path d="M10.384,4a1.743,1.743,0,0,1,3.232,0l.008.02a1.743,1.743,0,0,0,2.436.885l.012-.007A1.743,1.743,0,0,1,18.555,6.96l-.035.112A1.743,1.743,0,0,0,19.806,9.3l.1.023a1.743,1.743,0,0,1,.565,3.168l-.12.077a1.743,1.743,0,0,0-.445,2.522L20,15.2a1.743,1.743,0,0,1-1.624,2.782l-.056-.008a1.743,1.743,0,0,0-1.979,1.658l0,.067A1.743,1.743,0,0,1,13.3,20.8h0a1.743,1.743,0,0,0-2.6,0h0A1.743,1.743,0,0,1,7.663,19.7l0-.067a1.743,1.743,0,0,0-1.979-1.658l-.056.008A1.743,1.743,0,0,1,4,15.2l.089-.117a1.743,1.743,0,0,0-.445-2.522l-.12-.077A1.743,1.743,0,0,1,4.09,9.319l.1-.023A1.743,1.743,0,0,0,5.48,7.072L5.445,6.96A1.743,1.743,0,0,1,7.928,4.9l.012.007a1.743,1.743,0,0,0,2.436-.885Z" stroke="none"/>
    <path d="M 12 3.910970687866211 C 11.84932041168213 3.910970687866211 11.48056983947754 3.95625114440918 11.31112003326416 4.375791549682617 L 11.30327987670898 4.395191192626953 C 10.88218975067139 5.437761306762695 9.883179664611816 6.111431121826172 8.758190155029297 6.111431121826172 C 8.311650276184082 6.111431121826172 7.866090774536133 5.999721527099609 7.469440460205078 5.788261413574219 L 7.457420349121094 5.781850814819336 C 7.341760635375977 5.72020149230957 7.223379135131836 5.688941955566406 7.105550765991211 5.688941955566406 C 6.876190185546875 5.688941955566406 6.644390106201172 5.810651779174805 6.5006103515625 6.006561279296875 C 6.402610778808594 6.140081405639648 6.305479049682617 6.361862182617188 6.399229049682617 6.660150527954102 L 6.434320449829102 6.771810531616211 C 6.664199829101563 7.503211975097656 6.575960159301758 8.303361892700195 6.192230224609375 8.96709156036377 C 5.808500289916992 9.630821228027344 5.159099578857422 10.10654163360596 4.410469055175781 10.27229118347168 L 4.306079864501953 10.29539108276367 C 3.869409561157227 10.39206123352051 3.761459350585938 10.74367141723633 3.735309600830078 10.89035129547119 C 3.709159851074219 11.03703117370605 3.688989639282227 11.40427112579346 4.065349578857422 11.64587116241455 L 4.185550689697266 11.72302150726318 C 4.827789306640625 12.13529109954834 5.272239685058594 12.80277156829834 5.404939651489258 13.5543212890625 C 5.537639617919922 14.30588150024414 5.348649978637695 15.08522129058838 4.886379241943359 15.692551612854 L 4.797460556030273 15.80936145782471 C 4.545360565185547 16.14058113098145 4.659999847412109 16.46258163452148 4.720989227294922 16.58565139770508 C 4.769550323486328 16.68365097045898 4.960149765014648 17.00341033935547 5.37360954284668 17.00341033935547 C 5.411260604858398 17.00341033935547 5.450309753417969 17.00067138671875 5.489719390869141 16.99526214599609 L 5.545249938964844 16.98764038085938 C 5.669769287109375 16.97055053710938 5.796279907226563 16.96188163757324 5.921279907226563 16.96188163757324 C 7.398040771484375 16.96188163757324 8.600620269775391 18.11920166015625 8.659070014953613 19.59667205810547 L 8.66172981262207 19.6639518737793 C 8.680139541625977 20.12933158874512 9.064840316772461 20.38045120239258 9.417460441589355 20.38045120239258 C 9.62693977355957 20.38045120239258 9.808560371398926 20.29631042480469 9.957269668579102 20.13035202026367 C 10.47686004638672 19.55051040649414 11.22140026092529 19.21796035766602 11.99999046325684 19.21796035766602 C 12.7785701751709 19.21796035766602 13.52311038970947 19.55051040649414 14.0427303314209 20.13037109375 C 14.19143009185791 20.29631042480469 14.37304973602295 20.38045120239258 14.58253002166748 20.38045120239258 C 14.93515968322754 20.38045120239258 15.31986999511719 20.12934112548828 15.33827018737793 19.66398239135742 L 15.34092998504639 19.59663200378418 C 15.39937019348145 18.11921119689941 16.60194969177246 16.96189117431641 18.07871055603027 16.96189117431641 C 18.20368957519531 16.96189117431641 18.33019065856934 16.97056198120117 18.45463943481445 16.98764038085938 L 18.51041030883789 16.99529075622559 C 18.54969024658203 17.00068092346191 18.58871078491211 17.00342178344727 18.62639045715332 17.00342178344727 C 19.03976058959961 17.00342178344727 19.23036956787109 16.68362045288086 19.27894973754883 16.58560180664063 C 19.33993911743164 16.46253204345703 19.45458984375 16.14052200317383 19.20254898071289 15.80938148498535 L 19.11359024047852 15.69252109527588 C 18.65135955810547 15.08524131774902 18.46236038208008 14.30591106414795 18.59505081176758 13.55435180664063 C 18.72774887084961 12.80279159545898 19.17219924926758 12.13529109954834 19.81446075439453 11.72302150726318 L 19.93463897705078 11.64587116241455 C 20.31101036071777 11.40427112579346 20.29084014892578 11.03703117370605 20.26469039916992 10.89035129547119 C 20.23855018615723 10.74367141723633 20.13059043884277 10.39207172393799 19.69400024414063 10.29541110992432 L 19.58943939208984 10.27227115631104 C 18.84090042114258 10.10654163360596 18.19149971008301 9.630821228027344 17.80776977539063 8.96709156036377 C 17.42403984069824 8.303361892700195 17.33580017089844 7.50322151184082 17.5656795501709 6.771800994873047 L 17.60078048706055 6.660121917724609 C 17.69456100463867 6.36174201965332 17.5974006652832 6.139921188354492 17.49938011169434 6.006381988525391 C 17.35562896728516 5.810541152954102 17.1238899230957 5.688911437988281 16.89456939697266 5.688941955566406 C 16.77663040161133 5.68895149230957 16.65821075439453 5.720211029052734 16.54281997680664 5.781721115112305 L 16.53033065795898 5.78839111328125 C 16.1339111328125 5.999721527099609 15.68834018707275 6.111431121826172 15.2418098449707 6.111431121826172 C 14.1168098449707 6.111431121826172 13.11779975891113 5.437770843505859 12.69670963287354 4.395181655883789 L 12.68881034851074 4.375631332397461 C 12.51943016052246 3.95625114440918 12.15067958831787 3.910970687866211 12 3.910970687866211 M 12 2.910968780517578 C 12.66125011444092 2.910968780517578 13.32250022888184 3.274356842041016 13.61604022979736 4.001131057739258 L 13.62394046783447 4.02069091796875 C 14.01173114776611 4.980813980102539 15.14615917205811 5.393083572387695 16.05990028381348 4.905950546264648 L 16.07215881347656 4.899412155151367 C 17.4489631652832 4.16541862487793 19.02257919311523 5.47150993347168 18.55476951599121 6.9599609375 L 18.51966094970703 7.071660995483398 C 18.21321105957031 8.046710968017578 18.80770111083984 9.074971199035645 19.80561065673828 9.29591178894043 L 19.91007995605469 9.319031715393066 C 21.42351913452148 9.654111862182617 21.77930068969727 11.65005111694336 20.47484016418457 12.48741149902344 L 20.35465049743652 12.56456184387207 C 19.49844932556152 13.11417102813721 19.2930908203125 14.27727127075195 19.90930938720703 15.08685111999512 L 19.99826049804688 15.20371150970459 C 20.93952941894531 16.44036102294922 19.91401290893555 18.19737815856934 18.37434959411621 17.98599243164063 L 18.31872940063477 17.97836112976074 C 17.29909515380859 17.8383674621582 16.38083076477051 18.60775184631348 16.34014892578125 19.63616180419922 L 16.33749008178711 19.70347213745117 C 16.27561950683594 21.26780319213867 14.34277153015137 21.96364212036133 13.29798984527588 20.79772186279297 L 13.29798030853271 20.79771041870117 C 12.60528945922852 20.02471160888672 11.39469909667969 20.02471160888672 10.70201015472412 20.79771041870117 L 10.70201015472412 20.79772186279297 C 9.657221794128418 21.9636402130127 7.724380493164063 21.26780319213867 7.662509918212891 19.70347213745117 L 7.659849166870117 19.63615036010742 C 7.619171142578125 18.60775375366211 6.700956344604492 17.83835983276367 5.681259155273438 17.97835159301758 L 5.625650405883789 17.98598098754883 C 4.08598518371582 18.19737243652344 3.060470581054688 16.44035148620605 4.001739501953125 15.20370101928711 L 4.090690612792969 15.08685111999512 C 4.706899642944336 14.27726173400879 4.501550674438477 13.11417102813721 3.645349502563477 12.56456184387207 L 3.52515983581543 12.48741149902344 C 2.220699310302734 11.65005111694336 2.576480865478516 9.654101371765137 4.089920043945313 9.319031715393066 L 4.194389343261719 9.29591178894043 C 5.192300796508789 9.074971199035645 5.78679084777832 8.046710968017578 5.480329513549805 7.071651458740234 L 5.445230484008789 6.9599609375 C 4.977418899536133 5.471511840820313 6.551031112670898 4.165412902832031 7.927839279174805 4.899412155151367 L 7.940099716186523 4.905950546264648 C 8.853843688964844 5.393089294433594 9.988269805908203 4.980812072753906 10.37605953216553 4.020681381225586 L 10.38395977020264 4.001131057739258 C 10.67749977111816 3.274356842041016 11.33874988555908 2.910968780517578 12 2.910968780517578 Z" stroke="none" fill="#cac6dc"/>
  </g>
</svg>
