<?xml version="1.0" encoding="UTF-8"?> <svg xmlns="http://www.w3.org/2000/svg" width="160" height="150" viewBox="0 0 160 150" fill="none"><rect width="160" height="150" fill="#3FCBEB"></rect><path d="M79.9891 64.74C85.7163 64.74 90.3591 60.0972 90.3591 54.37C90.3591 48.6428 85.7163 44 79.9891 44C74.2619 44 69.6191 48.6428 69.6191 54.37C69.6191 60.0972 74.2619 64.74 79.9891 64.74Z" fill="white"></path><path d="M95.5449 81.3225V62.1465L84.0449 71.7315L95.5449 81.3225Z" fill="white"></path><path d="M64.4336 62.1465V90.6645C64.4336 92.7072 64.8359 94.7299 65.6176 96.6171C66.3994 98.5043 67.5451 100.219 68.9895 101.664C70.434 103.108 72.1487 104.254 74.0359 105.035C75.9232 105.817 77.9459 106.219 79.9886 106.219C82.0313 106.219 84.054 105.817 85.9412 105.035C87.8285 104.254 89.5432 103.108 90.9876 101.664C92.4321 100.219 93.5778 98.5043 94.3595 96.6171C95.1412 94.7299 95.5436 92.7072 95.5436 90.6645V88.0645L64.4336 62.1465Z" fill="white"></path><path d="M123.979 76.7266H36V89.7216H123.979V76.7266Z" fill="#FEC5FF"></path><path d="M46.3519 80.6895H44.377L44.4769 81.4175V85.9075H46.1109C46.4474 85.9059 46.78 85.8347 47.0876 85.6983C47.3952 85.562 47.6712 85.3634 47.8984 85.1151C48.1255 84.8669 48.2988 84.5743 48.4073 84.2558C48.5158 83.9373 48.5572 83.5997 48.5289 83.2645C48.5339 81.4985 47.4559 80.6895 46.3519 80.6895ZM46.211 81.2595C47.111 81.2595 47.7639 82.1965 47.7639 83.3135C47.7639 84.4305 47.115 85.3345 46.211 85.3345H45.1969V81.2595H46.211Z" fill="white"></path><path d="M53.4758 85.907L51.8478 83.749C52.1418 83.6235 52.3937 83.4163 52.5736 83.1521C52.7535 82.8878 52.8538 82.5775 52.8628 82.258C52.8648 82.0389 52.8207 81.8219 52.7334 81.621C52.646 81.42 52.5174 81.2398 52.3559 81.0918C52.1943 80.9438 52.0035 80.8315 51.7957 80.7621C51.5879 80.6927 51.3678 80.6678 51.1498 80.689H49.6758L49.7758 81.417V85.907H50.5688L50.4898 85.307V83.955C50.9578 83.955 51.0698 83.955 51.1578 83.948L52.5578 85.907H53.4758ZM50.4928 83.369V81.276H51.0098C51.148 81.261 51.2879 81.2752 51.4203 81.3177C51.5528 81.3602 51.6748 81.4301 51.7785 81.5228C51.8822 81.6154 51.9652 81.7288 52.0223 81.8557C52.0794 81.9825 52.1092 82.1199 52.1098 82.259C52.1055 82.5503 51.9885 82.8286 51.7834 83.0356C51.5783 83.2425 51.3011 83.362 51.0098 83.369H50.4928Z" fill="white"></path><path d="M55.1006 85.5123C55.1008 85.3854 55.0512 85.2633 54.9624 85.1726C54.8735 85.0819 54.7525 85.0297 54.6256 85.0273C54.4986 85.0297 54.3776 85.0819 54.2888 85.1726C54.1999 85.2633 54.1503 85.3854 54.1506 85.5123C54.1488 85.5764 54.1598 85.6401 54.1827 85.7C54.2057 85.7598 54.2402 85.8145 54.2843 85.8609C54.3284 85.9074 54.3813 85.9446 54.4399 85.9706C54.4984 85.9966 54.5615 86.0108 54.6256 86.0123C54.6896 86.0108 54.7527 85.9966 54.8113 85.9706C54.8698 85.9446 54.9227 85.9074 54.9668 85.8609C55.0109 85.8145 55.0455 85.7598 55.0684 85.7C55.0914 85.6401 55.1023 85.5764 55.1006 85.5123Z" fill="white"></path><path d="M57.2985 80.6895H56.4805L56.5805 81.4175V85.9075H57.3735L57.2945 85.3075L57.2985 80.6895Z" fill="white"></path><path d="M62.7951 80.6895H62.0881L60.7711 84.1785L60.5651 84.8435L60.4001 84.1785L59.1531 80.6895H58.2031L58.6621 81.5615L60.2411 85.9085L60.7411 86.0085L62.7951 80.6895Z" fill="white"></path><path d="M62.5664 85.9089H63.2554L63.7724 84.5439H65.7154L66.2154 85.9089H67.0804L66.6804 85.0349L65.0624 80.5859L64.5804 80.6859L62.5664 85.9089ZM64.6834 82.1259L64.7834 81.8079L64.8624 82.1159L65.5204 83.9399H63.9904L64.6834 82.1259Z" fill="white"></path><path d="M72.2417 80.6905H71.4888L71.5887 81.4185V84.5045L71.2407 83.9895L68.3288 80.6895H67.8438L67.9437 81.4175V85.9075H68.6737L68.5928 85.3075V82.0605L68.9338 82.5775L71.9077 85.9085H72.2808L72.2347 85.3085L72.2417 80.6905Z" fill="white"></path><path d="M73.4707 85.4234C73.6534 85.6146 73.8739 85.7656 74.1183 85.8667C74.3626 85.9678 74.6254 86.0167 74.8897 86.0104C75.0973 86.0252 75.3057 85.9958 75.5011 85.9243C75.6966 85.8528 75.8747 85.7407 76.0237 85.5954C76.1728 85.4502 76.2894 85.275 76.3659 85.0814C76.4424 84.8879 76.4771 84.6803 76.4677 84.4724C76.4677 82.9164 74.2307 83.0124 74.2307 81.8724C74.2323 81.775 74.2535 81.6788 74.2931 81.5897C74.3326 81.5006 74.3897 81.4203 74.4609 81.3537C74.532 81.2871 74.6159 81.2355 74.7074 81.2019C74.799 81.1684 74.8963 81.1536 74.9937 81.1584C75.4016 81.1626 75.7971 81.2991 76.1207 81.5474L76.3267 80.9674C75.9345 80.7209 75.48 80.5915 75.0167 80.5944C74.8173 80.5884 74.6186 80.6226 74.4327 80.695C74.2468 80.7674 74.0774 80.8766 73.9346 81.0159C73.7917 81.1553 73.6785 81.322 73.6015 81.5061C73.5246 81.6902 73.4855 81.8879 73.4867 82.0874C73.4867 83.4874 75.7627 83.5294 75.7627 84.5774C75.769 84.6912 75.7516 84.8051 75.7114 84.9118C75.6713 85.0185 75.6093 85.1156 75.5295 85.197C75.4497 85.2784 75.3538 85.3423 75.248 85.3845C75.1421 85.4268 75.0286 85.4465 74.9147 85.4424C74.3853 85.3978 73.8949 85.1463 73.5497 84.7424C73.5497 84.7424 73.4777 85.4164 73.4707 85.4234Z" fill="white"></path><path d="M77.7388 85.9085H80.2768L80.4348 85.3215H78.4528V83.5275H79.9528L80.1128 82.9405H78.4528V81.2765H80.3468V80.6895H77.6348L77.7348 81.4175L77.7388 85.9085Z" fill="white"></path><path d="M85.3996 85.907L83.7716 83.749C84.0656 83.6235 84.3175 83.4163 84.4974 83.1521C84.6773 82.8878 84.7777 82.5775 84.7866 82.258C84.7886 82.0389 84.7445 81.8219 84.6572 81.621C84.5699 81.42 84.4412 81.2398 84.2797 81.0918C84.1182 80.9438 83.9273 80.8315 83.7195 80.7621C83.5117 80.6927 83.2917 80.6678 83.0736 80.689H81.5996L81.6996 81.417V85.907H82.4996L82.4186 85.307V83.955C82.8866 83.955 82.9986 83.955 83.0866 83.948L84.4866 85.907H85.3996ZM82.4156 83.369V81.276H82.9326C83.0709 81.261 83.2107 81.2752 83.3432 81.3177C83.4756 81.3602 83.5976 81.4301 83.7013 81.5228C83.805 81.6154 83.8881 81.7288 83.9451 81.8557C84.0022 81.9825 84.032 82.1199 84.0326 82.259C84.0283 82.5503 83.9113 82.8286 83.7062 83.0356C83.5012 83.2425 83.2239 83.362 82.9326 83.369H82.4156Z" fill="white"></path><path d="M90.054 83.3301H89.238L89.372 83.9171L89.363 85.3061C89.046 85.3834 88.722 85.4283 88.396 85.4401C88.1391 85.4202 87.8887 85.3497 87.6591 85.2328C87.4295 85.1159 87.2252 84.9548 87.058 84.7587C86.8908 84.5627 86.7639 84.3356 86.6846 84.0905C86.6053 83.8453 86.5752 83.5869 86.596 83.3301C86.5552 82.8189 86.7116 82.3114 87.0332 81.9118C87.3547 81.5122 87.8169 81.2508 88.325 81.1811C88.5769 81.1816 88.8259 81.2354 89.0556 81.3387C89.2853 81.4421 89.4906 81.5929 89.658 81.7811L90.022 81.2411C89.5599 80.8139 88.9512 80.5808 88.322 80.5901C87.9713 80.6051 87.6272 80.6907 87.3103 80.8419C86.9935 80.9931 86.7105 81.2068 86.4782 81.47C86.246 81.7333 86.0693 82.0407 85.9588 82.3739C85.8482 82.7071 85.8061 83.0592 85.835 83.4091C85.8104 83.7415 85.8546 84.0754 85.965 84.3899C86.0754 84.7044 86.2496 84.9928 86.4765 85.2368C86.7035 85.4809 86.9785 85.6755 87.2842 85.8084C87.5899 85.9413 87.9197 86.0096 88.253 86.0091C88.8689 86.0076 89.4805 85.9063 90.064 85.7091L90.054 83.3301Z" fill="white"></path><path d="M91.5844 85.9085H94.1224L94.2824 85.3215H92.3024V83.5275H93.8024L93.9604 82.9405H92.3024V81.2765H94.2024V80.6895H91.4824L91.5824 81.4175L91.5844 85.9085Z" fill="white"></path><path d="M95.5512 85.9085H98.0892L98.2472 85.3215H96.2652V83.5275H97.7652L97.9232 82.9405H96.2652V81.2765H98.1652V80.6895H95.4492L95.5492 81.4175L95.5512 85.9085Z" fill="white"></path><path d="M103.252 80.6895H102.552L101.231 84.1785L101.025 84.8435L100.858 84.1785L99.6132 80.6895H98.6602L99.1212 81.5615L100.7 85.9075L101.2 86.0075L103.252 80.6895Z" fill="white"></path><path d="M104.863 80.6895H104.045L104.145 81.4175V85.9075H104.938L104.859 85.3075L104.863 80.6895Z" fill="white"></path><path d="M110.282 81.2431C109.833 80.8162 109.234 80.5825 108.615 80.5921C108.262 80.6066 107.917 80.6916 107.598 80.842C107.279 80.9925 106.994 81.2053 106.759 81.4679C106.523 81.7305 106.343 82.0376 106.229 82.371C106.115 82.7045 106.068 83.0574 106.093 83.4091C106.068 83.7417 106.112 84.0757 106.223 84.3904C106.333 84.705 106.508 84.9934 106.735 85.2376C106.962 85.4817 107.237 85.6762 107.543 85.809C107.849 85.9417 108.179 86.0099 108.513 86.0091C109.185 85.993 109.833 85.7502 110.351 85.3201L110.177 84.7311C109.736 85.0938 109.203 85.3253 108.638 85.3991C108.384 85.3816 108.137 85.3141 107.909 85.2003C107.682 85.0865 107.48 84.9288 107.314 84.7363C107.148 84.5438 107.022 84.3203 106.943 84.0787C106.864 83.8372 106.834 83.5824 106.855 83.3291C106.806 82.8165 106.959 82.3052 107.282 81.9039C107.604 81.5026 108.071 81.2429 108.582 81.1801C108.833 81.1806 109.082 81.2343 109.312 81.3377C109.542 81.4411 109.747 81.5919 109.915 81.7801L110.282 81.2431Z" fill="white"></path><path d="M115.737 80.6895H114.919L115.019 81.4175V82.8945H112.226V80.6945H111.41L111.51 81.4225V85.9125H112.31L112.229 85.3125V83.5265H115.022V85.9075H115.815L115.736 85.3075L115.737 80.6895Z" fill="white"></path></svg> 